<?xml version="1.0" encoding="UTF-8" standalone="no"?>
<!-- Created with Inkscape (http://www.inkscape.org/) -->

<svg
   xmlns:dc="http://purl.org/dc/elements/1.1/"
   xmlns:cc="http://creativecommons.org/ns#"
   xmlns:rdf="http://www.w3.org/1999/02/22-rdf-syntax-ns#"
   xmlns:svg="http://www.w3.org/2000/svg"
   xmlns="http://www.w3.org/2000/svg"
   xmlns:sodipodi="http://sodipodi.sourceforge.net/DTD/sodipodi-0.dtd"
   xmlns:inkscape="http://www.inkscape.org/namespaces/inkscape"
   width="16.933331mm"
   height="16.933331mm"
   viewBox="0 0 16.933331 16.933331"
   version="1.1"
   id="svg105"
   inkscape:version="0.92.3 (2405546, 2018-03-11)"
   sodipodi:docname="boundless_server_mark.svg">
  <defs
     id="defs99" />
  <sodipodi:namedview
     id="base"
     pagecolor="#ffffff"
     bordercolor="#666666"
     borderopacity="1.0"
     inkscape:pageopacity="0.0"
     inkscape:pageshadow="2"
     inkscape:zoom="17.234377"
     inkscape:cx="31.999995"
     inkscape:cy="31.99998"
     inkscape:document-units="mm"
     inkscape:current-layer="layer1"
     showgrid="false"
     fit-margin-top="0"
     fit-margin-left="0"
     fit-margin-right="0"
     fit-margin-bottom="0"
     inkscape:window-width="2400"
     inkscape:window-height="1350"
     inkscape:window-x="1424"
     inkscape:window-y="753"
     inkscape:window-maximized="0" />
  <metadata
     id="metadata102">
    <rdf:RDF>
      <cc:Work
         rdf:about="">
        <dc:format>image/svg+xml</dc:format>
        <dc:type
           rdf:resource="http://purl.org/dc/dcmitype/StillImage" />
        <dc:title></dc:title>
      </cc:Work>
    </rdf:RDF>
  </metadata>
  <g
     inkscape:label="Layer 1"
     inkscape:groupmode="layer"
     id="layer1"
     transform="translate(-86.027383,-154.72976)">
    <path
       style="fill:#2a728d;stroke-width:0.08467814"
       inkscape:connector-curvature="0"
       d="m 94.494158,171.66309 v 0 a 3.4324657,3.4332384 0 0 0 2.430836,-1.00355 3.4324657,3.4332384 0 0 1 -2.430836,1.00355 z m 7.155342,-8.45183 c -0.49446,-0.12111 -0.43604,-0.41751 -0.25993,-0.4336 0.17611,-0.0161 0.84669,0.16937 0.84669,0.34976 0,0.18038 -0.21337,0.1753 -0.58591,0.0847 z m -4.162307,2.11719 c -0.09483,0.93156 0.508012,1.26185 -0.70529,2.95306 -1.2133,1.69121 -2.319918,-0.64109 -1.81868,-1.59721 0.501238,-0.95612 -0.408103,-1.92411 -1.405499,-2.02573 -0.997397,-0.10163 -0.792499,-1.90378 0.491924,-2.84042 0.871241,-0.63516 2.689921,-0.35061 2.878732,0.42936 0.149018,0.6106 1.236163,0.28201 1.516416,0.625 0.280253,0.34298 -0.861927,1.52438 -0.957603,2.45594 z m -1.921129,-6.72082 c 0.175263,0.0771 0.417416,0.42344 0.109222,0.46409 a 0.62062097,0.62076067 0 0 1 -0.635862,-0.24898 c -0.207438,-0.25406 0.351375,-0.29217 0.52664,-0.21595 z m 7.281496,3.7161 c -0.17611,0.0406 -1.00247,0.69614 -1.50456,0.15413 -1.09138,-1.178 -2.169208,-0.81893 -1.768725,-0.52167 0.313274,0.23289 0.228607,0.86635 -0.276019,1.00355 -0.607922,0.16514 -1.201449,-0.50813 -1.201449,-1.19918 0,-1.29657 -0.783183,-1.53962 -1.036344,-1.75896 -0.292951,-0.25407 -0.659567,0.22781 -0.624008,0.35568 0.126157,0.45393 -1.07021,1.12296 -1.449525,0.74441 -0.762018,-0.76219 1.100692,-0.69444 0,-1.18563 -0.408103,-0.1897 1.338611,-0.82232 1.635798,-1.12127 0.297188,-0.29894 -0.296339,-0.51998 -0.22268,-1.11448 0.02963,-0.24306 0.62909,-0.99847 1.395341,-1.07892 l -0.869547,-0.86805 c -0.06858,-0.0677 -0.141398,-0.13042 -0.213365,-0.19225 -0.144784,0.88669 -1.449527,1.54047 -1.939758,1.32706 -0.541033,-0.23628 0.513091,-1.17208 -0.625702,-1.02557 -0.707829,0.0906 -0.762017,-0.49373 -0.696822,-0.94935 a 3.4062184,3.4069851 0 0 0 -1.387719,0.84011 l -0.909341,0.91123 c 0.563046,0 1.375865,0.0754 1.375865,0.54878 0,0.72323 -1.053278,0.84688 -1.053278,1.77844 0,0.93157 2.408822,0.66226 0.737464,1.67174 -1.671359,1.00947 0.28618,1.85212 -0.436043,2.5745 -0.754398,0.75288 -0.542726,-1.23644 -1.177741,-0.96544 -0.635015,0.271 -1.234468,0.87314 -0.632474,1.17378 0.601993,0.30064 3.04045,1.32536 1.625637,2.34838 -1.237009,0.896 -2.170057,1.344 -2.385115,2.03251 l -0.781491,-0.78082 c 0.09652,-0.3252 0.197277,-0.86805 -0.09314,-1.15853 -0.432657,-0.43275 -0.382702,-1.56672 0.279407,-2.22898 0.662108,-0.66226 0.30142,-1.68698 -0.361536,-1.68698 -0.530025,-9.6e-4 -1.452913,-0.12788 -1.472387,-0.89938 a 3.4451662,3.4459417 0 0 0 0.254006,4.57314 l 5.03101,5.03383 a 3.3969049,3.3976696 0 0 0 0.782338,0.58434 c 1.270029,-0.39887 3.781301,-1.14328 4.50437,-1.00778 l -0.423344,0.42344 3.668697,-3.67036 c -0.52495,-0.58689 -1.308982,0 -2.046445,-0.19309 -0.784031,-0.20833 0.155789,-1.72255 1.513875,-2.19257 1.20907,-0.4192 1.63072,0.4895 1.89319,1.02472 l -1.36147,1.36094 1.36147,-1.36094 a 3.4265389,3.4273102 0 0 0 0.88818,-3.30282 z m -8.353402,-7.59394 z"
       class="cls-1"
       id="path22" />
    <path
       style="fill:#2a728d;stroke-width:0.08467814"
       inkscape:connector-curvature="0"
       d="m 94.494158,154.72979 v 0 a 3.4138387,3.4146072 0 0 0 -2.430835,1.00355 l -5.03101,5.03129 a 3.4434727,3.4442478 0 0 0 0,4.86361 l 5.03101,5.0313 a 3.4477061,3.4484822 0 0 0 4.862519,0 l 5.029318,-5.0313 a 3.4409328,3.4417074 0 0 0 0,-4.86276 l -5.029318,-5.0313 a 3.4172254,3.4179946 0 0 0 -2.431684,-1.00439 m 0,0.41836 a 3.0108161,3.0114938 0 0 1 2.13619,0.88075 l 5.029312,5.03129 a 3.0277498,3.0284314 0 0 1 0,4.27165 l -5.029312,5.03214 a 3.0319833,3.0326658 0 0 1 -4.272379,0 l -5.029316,-5.03214 a 3.0277498,3.0284314 0 0 1 0,-4.27165 l 5.029316,-5.03129 a 3.0125095,3.0131876 0 0 1 2.136189,-0.88075"
       class="cls-1"
       id="path26" />
  </g>
</svg>
