<?xml version="1.0" encoding="UTF-8" standalone="no"?>
<!-- Created with Inkscape (http://www.inkscape.org/) -->

<svg
   xmlns:dc="http://purl.org/dc/elements/1.1/"
   xmlns:cc="http://creativecommons.org/ns#"
   xmlns:rdf="http://www.w3.org/1999/02/22-rdf-syntax-ns#"
   xmlns:svg="http://www.w3.org/2000/svg"
   xmlns="http://www.w3.org/2000/svg"
   xmlns:sodipodi="http://sodipodi.sourceforge.net/DTD/sodipodi-0.dtd"
   xmlns:inkscape="http://www.inkscape.org/namespaces/inkscape"
   width="16.933331mm"
   height="16.933331mm"
   viewBox="0 0 16.933331 16.933331"
   version="1.1"
   id="svg72"
   inkscape:version="0.92.3 (2405546, 2018-03-11)"
   sodipodi:docname="boundless_server_mark_white.svg">
  <defs
     id="defs66" />
  <sodipodi:namedview
     id="base"
     pagecolor="#ffffff"
     bordercolor="#666666"
     borderopacity="1.0"
     inkscape:pageopacity="0.0"
     inkscape:pageshadow="2"
     inkscape:zoom="17.234378"
     inkscape:cx="32.000013"
     inkscape:cy="31.999996"
     inkscape:document-units="mm"
     inkscape:current-layer="layer1"
     showgrid="false"
     inkscape:pagecheckerboard="true"
     fit-margin-top="0"
     fit-margin-left="0"
     fit-margin-right="0"
     fit-margin-bottom="0"
     inkscape:window-width="2400"
     inkscape:window-height="1350"
     inkscape:window-x="1424"
     inkscape:window-y="0"
     inkscape:window-maximized="0" />
  <metadata
     id="metadata69">
    <rdf:RDF>
      <cc:Work
         rdf:about="">
        <dc:format>image/svg+xml</dc:format>
        <dc:type
           rdf:resource="http://purl.org/dc/dcmitype/StillImage" />
        <dc:title></dc:title>
      </cc:Work>
    </rdf:RDF>
  </metadata>
  <g
     inkscape:label="Layer 1"
     inkscape:groupmode="layer"
     id="layer1"
     transform="translate(-148.77764,-304.40159)">
    <path
       inkscape:connector-curvature="0"
       style="fill:#ffffff;stroke-width:0.08467746"
       d="m 157.24389,321.33492 -0.009,-6.4e-4 0.009,6.4e-4 h 0.002 c 0.87799,0 1.76123,-0.3346 2.43061,-1.00372 -0.66929,0.66903 -1.55253,1.00372 -2.43061,1.00372 z m 7.15535,-8.45206 c -0.49403,-0.12144 -0.4357,-0.41785 -0.26035,-0.43394 0.17594,-0.0163 0.84379,0.16879 0.84624,0.34942 0.002,0.18056 -0.21293,0.17548 -0.58589,0.0845 z m -4.16205,2.11484 c -0.095,0.9314 0.5091,1.26152 -0.70552,2.95282 -1.21319,1.69199 -2.31987,-0.64092 -1.8189,-1.5973 0.5014,-0.9574 -0.40826,-1.92454 -1.40538,-2.02608 -0.99754,-0.10264 -0.79248,-1.90422 0.49234,-2.8407 0.87113,-0.63516 2.68969,-0.35053 2.87892,0.42895 0.14918,0.61094 1.23647,0.28175 1.51612,0.62525 0.28008,0.34417 -0.86173,1.52591 -0.95758,2.45706 z m -1.92117,-6.7179 c 0.17569,0.0768 0.41775,0.42336 0.10939,0.46452 -0.30793,0.0415 -0.48031,-0.0581 -0.63568,-0.24873 -0.20701,-0.25347 0.3512,-0.29218 0.52629,-0.21579 z m 7.27812,3.71646 c -0.17585,0.0405 -1.00262,0.69614 -1.50453,0.15439 -1.09211,-1.17861 -2.16552,-0.82021 -1.76521,-0.52295 0.31335,0.23247 0.22868,0.86636 -0.27619,1.00389 -0.60765,0.16472 -1.2015,-0.5088 -1.2015,-1.19935 0,-1.29683 -0.78283,-1.53947 -1.03607,-1.75932 -0.29337,-0.25448 -0.65921,0.22798 -0.62365,0.35586 0.12607,0.45368 -1.07061,1.12272 -1.44933,0.74407 -0.76327,-0.76397 1.0994,-0.69402 0,-1.18961 -0.4119,-0.1853 1.33824,-0.81767 1.63492,-1.11543 0.29743,-0.29666 -0.29668,-0.52016 -0.22259,-1.11458 0.03,-0.2434 0.62865,-0.9989 1.39497,-1.07876 l -0.86868,-0.86916 c -0.0682,-0.068 -0.14097,-0.13067 -0.21319,-0.1919 -0.14504,0.88668 -1.44975,1.54048 -1.93946,1.3269 -0.54069,-0.23654 0.51299,-1.17226 -0.62552,-1.02558 -0.70798,0.0908 -0.75946,-0.49416 -0.69698,-0.94936 -0.50817,0.16024 -0.9867,0.43903 -1.38794,0.83986 l -0.91016,0.91116 c 0.56286,-0.003 1.37617,0.0755 1.37617,0.54844 0,0.72315 -1.05368,0.84341 -1.05368,1.77701 0,0.93386 2.4086,0.66243 0.73711,1.67141 -1.6709,1.00898 0.28617,1.85171 -0.43637,2.57478 -0.75455,0.75449 -0.54136,-1.23476 -1.17399,-0.96375 -0.63238,0.27125 -1.23478,0.8733 -0.63238,1.17403 0.60224,0.30158 3.04056,1.32503 1.62552,2.34874 -1.2374,0.89634 -2.17018,1.34359 -2.38489,2.03058 l -0.78113,-0.78092 c 0.0967,-0.32537 0.19761,-0.86822 -0.0935,-1.15853 -0.43248,-0.43234 -0.38295,-1.56648 0.27906,-2.22866 0.66269,-0.66243 0.30116,-1.68682 -0.36135,-1.68682 -0.53002,0 -1.45542,-0.1272 -1.47541,-0.89854 -0.49775,0.62305 -0.74845,1.38321 -0.74845,2.141 0,0.87949 0.33317,1.76491 1.00364,2.43496 l 5.02979,5.03099 c 0.23665,0.23671 0.50098,0.42954 0.78241,0.58257 1.26627,-0.3988 3.78147,-1.14295 4.5041,-1.00779 l -0.42351,0.42522 3.66852,-3.67022 c -0.52459,-0.58689 -1.30886,0.004 -2.04613,-0.193 -0.78385,-0.20859 0.15612,-1.7229 1.51401,-2.19241 1.20929,-0.41904 1.63084,0.48924 1.89314,1.02464 l -1.36102,1.36077 1.36102,-1.36077 c 0.66937,-0.67005 1.00339,-1.55394 1.00339,-2.43326 0,-0.29286 -0.0405,-0.58503 -0.11498,-0.8706 z m -8.35101,-7.59467 v 0 h 0.002 z"
       id="path4" />
    <path
       inkscape:connector-curvature="0"
       style="fill:#ffffff;stroke-width:0.08467746"
       d="m 157.2444,304.40159 v 0 c -0.92075,0 -1.78427,0.35662 -2.43112,1.00372 l -5.03056,5.03091 c -1.3401,1.34053 -1.3401,3.52286 0,4.86398 l 5.03047,5.031 c 0.64686,0.64693 1.51037,1.00372 2.43112,1.00372 0.92067,0 1.78401,-0.35679 2.43163,-1.00372 l 5.02945,-5.031 c 1.34078,-1.34112 1.34078,-3.5226 0,-4.86322 l -5.02945,-5.03175 c -0.64762,-0.64702 -1.51096,-1.00364 -2.43154,-1.00364 m 0,0.41802 c 0.77478,-1.7e-4 1.54855,0.29344 2.1363,0.8811 l 5.02937,5.03175 c 1.17501,1.17454 1.17501,3.09671 0,4.27151 l -5.02937,5.03234 c -0.58775,0.58706 -1.36152,0.88059 -2.1363,0.88059 -0.77453,0 -1.54856,-0.29378 -2.13597,-0.88059 l -5.02971,-5.03234 c -1.17509,-1.17429 -1.17509,-3.09697 -6.4e-4,-4.27151 l 5.03021,-5.03175 c 0.58742,-0.5874 1.36195,-0.8811 2.13598,-0.8811"
       id="path6" />
  </g>
</svg>
