<?xml version="1.0" encoding="UTF-8"?>
<svg width="60px" height="70px" viewBox="0 0 60 70" version="1.1" xmlns="http://www.w3.org/2000/svg" xmlns:xlink="http://www.w3.org/1999/xlink">
    <!-- Generator: Sketch 51.3 (57544) - http://www.bohemiancoding.com/sketch -->
    <title>boundless_mark</title>
    <desc>Created with Sketch.</desc>
    <defs></defs>
    <g id="boundless_mark" stroke="none" stroke-width="1" fill="none" fill-rule="evenodd">
        <g id="mark" transform="translate(0.000000, 5.000000)" fill-rule="nonzero">
            <path d="M22.8943928,25.8878378 C20.94627,29.4906422 22.286302,33.9912859 25.8874408,35.9403165 C29.4885796,37.889347 33.9871525,36.548709 35.9352942,32.9459148 C37.8834359,29.3431206 36.5434276,24.8424699 32.9422991,22.8934204 C31.2129641,21.9574472 29.1828144,21.7471055 27.2984642,22.3086683 C25.4141139,22.8702312 23.8299209,24.1576979 22.8943928,25.8878378" id="Shape" fill="#2A728E"></path>
            <path d="M29.5059404,10.3486818 C29.5059404,10.3486818 24.6099948,5.98753212 17.7251144,7.88925226 C17.6418406,7.91197376 17.5620079,7.92299024 17.4801106,7.94915438 L22.0993947,3.35872418 C22.2101969,3.24167407 22.3326988,3.13564043 22.4490068,3.02409855 L22.4159725,3 L4.01109864,21.4526068 L4.04344463,21.5772307 L3.73856638,21.8822496 C-0.561066919,25.3897704 -1.25201098,31.7000329 2.1866466,36.0556417 C2.26235001,36.153413 2.33598877,36.2532499 2.41582145,36.34689 C2.66124379,36.6376036 2.92198787,36.9150161 3.19694294,37.1779458 L7.78319279,41.8000484 C7.77149317,41.7635563 7.76598747,41.7270642 7.75635249,41.6898836 C5.75778263,34.7267786 10.1809261,29.7693619 10.1809261,29.7693619 L10.2070781,29.7431977 L29.5830203,10.421666 L29.5059404,10.3486818 Z" id="Shape" fill="#FBCC33"></path>
            <path d="M18,7.78588848 C18.0825855,7.76041287 18.1624182,7.74870786 18.2450037,7.72667489 C25.1271314,5.82495475 30.0258298,10.1854159 30.0258298,10.1854159 L30.1022214,10.2625313 L47.3178637,27.5494566 C50.162247,23.2743732 49.3577263,17.5444256 48.5841752,14.418499 L37.9106834,3.74077412 C36.1126337,1.53518231 33.4727705,0.184676531 30.6328352,0.0175598771 C27.7928999,-0.149556777 25.0129916,0.882021299 22.9688961,2.86152118 C22.8525882,2.97375159 22.7300863,3.0790967 22.6192841,3.19614681 L18,7.78588848 Z" id="Shape" fill="#F58D50"></path>
            <path d="M2,36.0543735 L2.5,36.5 C2.34350133,36.3392435 2.20424403,36.1666667 2.05702918,36 L2,36.0543735 Z" id="Shape" fill="#00A68C"></path>
            <path d="M57.3241113,23.6535207 C57.2601075,23.5770938 57.2050505,23.4944702 57.1396703,23.4180434 C56.9001723,23.1426313 56.6517274,22.8747931 56.3867655,22.6221026 L51.798451,18 C51.8094624,18.0330494 51.8135917,18.068853 51.8225385,18.1012139 C53.8279905,25.06845 49.401406,30.0334406 49.401406,30.0334406 L49.378695,30.0561621 L30,49.3728742 C30.0461103,49.4128089 35.0239532,53.8194016 41.994172,51.7758442 L55.8458303,37.9198644 C60.1800853,34.3826681 60.8417589,28.006006 57.326176,23.6535207" id="Shape" fill="#BCD64A"></path>
            <path d="M30.1568289,49.1829573 L30.1526996,49.1795146 L13.0891524,32 C10.2365105,36.1559677 10.8951301,41.754406 11.6480349,44.9849892 L22.2705989,55.6413696 C25.7887111,59.9800529 32.1516012,60.6549036 36.5007742,57.1506276 C36.8754464,56.8536708 37.2295426,56.5316167 37.5606218,56.1866855 L39.0230739,54.7311328 L42.1812823,51.5859273 C42.1711204,51.5870986 42.1611649,51.5896466 42.1516892,51.5935012 C35.1842231,53.6432553 30.2043156,49.2249576 30.1575171,49.1836458" id="Shape" fill="#00A78D"></path>
            <path d="M57.5,23.4473684 L57,23 C57.1666667,23.1622807 57.295,23.3362573 57.4483333,23.5 L57.5,23.4473684 Z" id="Shape" fill="#F58B4F"></path>
        </g>
    </g>
</svg>