<?xml version="1.0" encoding="UTF-8"?>
<svg width="60px" height="70px" viewBox="0 0 60 70" version="1.1" xmlns="http://www.w3.org/2000/svg" xmlns:xlink="http://www.w3.org/1999/xlink">
    <!-- Generator: Sketch 51.3 (57544) - http://www.bohemiancoding.com/sketch -->
    <title>boundless_learning_mark_white</title>
    <desc>Created with Sketch.</desc>
    <defs></defs>
    <g id="boundless_learning_mark_white" stroke="none" stroke-width="1" fill="none" fill-rule="evenodd">
        <g id="mark" transform="translate(1.000000, 10.000000)" fill="#FFFFFF" fill-rule="nonzero">
            <polygon id="Shape" points="4.17311001 10.8816938 0 10.3535447 0 46.9149511 26.6705581 50.2915616 4.17311001 41.2121219"></polygon>
            <polygon id="Shape" points="54.0065775 10.8816938 54.0065775 41.2121219 31.5086614 50.2915616 58.1796875 46.9149511 58.1796875 10.3535447"></polygon>
            <polygon id="Shape" points="11.3440866 11.4245352 11.3440866 10.3933401 11.3440866 9.36165266 11.3440866 4.90265643 6.89251969 3.1060634 6.89251969 8.79806389 6.89251969 9.82975128 6.89251969 10.8609465 6.89251969 39.5365401 23.8503128 46.380329 11.3440866 36.3587854"></polygon>
            <polygon id="Shape" points="26.1171869 10.6712704 23.3592933 8.46121484 12.8003937 0 12.8003937 4.20008995 12.8003937 5.29675003 12.8003937 6.39390232 12.8003937 10.3134284 12.8003937 11.3451158 12.8003937 12.376311 12.8003937 36.0495005 28.38041 48.5340993 28.38041 14.3486256 28.38041 13.3174304 28.38041 12.6814857 28.38041 12.5323439 28.38041 12.4845988 28.0855733 12.2483345"></polygon>
            <polygon id="Shape" points="35.5451324 8.46121484 32.7872388 10.6712704 30.8188525 12.2483345 30.5240158 12.4845988 30.5240158 12.5323439 30.5240158 12.6814857 30.5240158 13.3174304 30.5240158 14.3486256 30.5240158 48.5340993 46.1035641 36.0495005 46.1035641 12.376311 46.1035641 11.3451158 46.1035641 10.3134284 46.1035641 6.39390232 46.1035641 5.29675003 46.1035641 4.20008995 46.1035641 0"></polygon>
            <polygon id="Shape" points="47.9534703 4.90265643 47.9534703 9.36165266 47.9534703 10.3933401 47.9534703 11.4245352 47.9534703 36.3587854 35.4472441 46.380329 52.4045692 39.5365401 52.4045692 10.8609465 52.4045692 9.82975128 52.4045692 8.79806389 52.4045692 3.1060634"></polygon>
        </g>
    </g>
</svg>