<?xml version="1.0" encoding="UTF-8" standalone="no"?>
<svg
   xmlns:dc="http://purl.org/dc/elements/1.1/"
   xmlns:cc="http://creativecommons.org/ns#"
   xmlns:rdf="http://www.w3.org/1999/02/22-rdf-syntax-ns#"
   xmlns:svg="http://www.w3.org/2000/svg"
   xmlns="http://www.w3.org/2000/svg"
   xmlns:sodipodi="http://sodipodi.sourceforge.net/DTD/sodipodi-0.dtd"
   xmlns:inkscape="http://www.inkscape.org/namespaces/inkscape"
   id="Layer_1"
   data-name="Layer 1"
   viewBox="0 0 288 288"
   version="1.1"
   sodipodi:docname="boundless_mark.svg"
   inkscape:version="0.92.3 (2405546, 2018-03-11)">
  <metadata
     id="metadata15">
    <rdf:RDF>
      <cc:Work
         rdf:about="">
        <dc:format>image/svg+xml</dc:format>
        <dc:type
           rdf:resource="http://purl.org/dc/dcmitype/StillImage" />
        <dc:title>Planet_logomark_web_pos</dc:title>
      </cc:Work>
    </rdf:RDF>
  </metadata>
  <sodipodi:namedview
     pagecolor="#ffffff"
     bordercolor="#666666"
     borderopacity="1"
     objecttolerance="10"
     gridtolerance="10"
     guidetolerance="10"
     inkscape:pageopacity="0"
     inkscape:pageshadow="2"
     inkscape:window-width="648"
     inkscape:window-height="483"
     id="namedview13"
     showgrid="false"
     inkscape:zoom="0.81944444"
     inkscape:cx="144"
     inkscape:cy="144"
     inkscape:window-x="205"
     inkscape:window-y="623"
     inkscape:window-maximized="0"
     inkscape:current-layer="Layer_1" />
  <defs
     id="defs4">
    <style
       id="style2">.cls-1{fill:#363f43;}.cls-2{fill:#009db1;}</style>
  </defs>
  <title
     id="title6">Planet_logomark_web_pos</title>
  <path
     class="cls-1"
     d="M154.68,79c-13.91,0-28.8,5.49-38.61,19.6h-.39A19.08,19.08,0,0,0,96.6,79.49H96V209.8a21.42,21.42,0,0,0,21.43,21.43V174.81h.39c4.11,6.86,15.48,18.42,38.22,18.42,34.29,0,54.87-28.22,54.87-55.66,0-29-19.4-58.6-56.25-58.6m-.78,95.64c-20.58,0-36.85-16.65-36.85-38.6,0-20,14.9-38.42,36.26-38.42,22.15,0,37.24,19.41,37.24,38.81,0,22.93-17.44,38.21-36.65,38.21"
     id="path8" />
  <path
     class="cls-2"
     d="M144,288C64.6,288,0,223.4,0,144S64.6,0,144,0,288,64.6,288,144,223.4,288,144,288m0-274.28A130.28,130.28,0,1,0,274.28,144,130.42,130.42,0,0,0,144,13.72"
     id="path10" />
</svg>
